<svg width="495" height="195" viewBox="0 0 495 195" fill="none" xmlns="http://www.w3.org/2000/svg">

  <style>
    .header {
      font: 600 18px "Segoe UI", Ubuntu, Sans-Serif;
      fill: #2f80ed;
      animation: fadeInAnimation 0.8s ease-in-out forwards;
    }

    .stat {
      font: 600 14px "Segoe UI", Ubuntu, "Helvetica Neue", Sans-Serif;
      fill: #333;
    }
    .stagger {
      opacity: 0;
      animation: fadeInAnimation 0.3s ease-in-out forwards;
    }
    .rank-text {
      font: 800 24px "Segoe UI", Ubuntu, Sans-Serif;
      fill: #333;
      animation: scaleInAnimation 0.3s ease-in-out forwards;
    }

    .bold {
      font-weight: 700;
    }

    .rank {
      font: 600 14px "Segoe UI", Ubuntu, "Helvetica Neue", Sans-Serif;
      font-weight: 700;
      fill: #4c71f2;
    }

    /* Animations */
    @keyframes scaleInAnimation {
      from {
        transform: translate(-5px, 5px) scale(0);
      }
      to {
        transform: translate(-5px, 5px) scale(1);
      }
    }
    @keyframes fadeInAnimation {
      from {
        opacity: 0;
      }
      to {
        opacity: 1;
      }
    }
  </style>

  <rect
    data-testid="card-bg"
    x="0.5"
    y="0.5"
    rx="4.5"
    height="99%"
    stroke="#E4E2E2"
    width="494"
    fill="#fffefe"
    stroke-opacity="1"
  />

  <g
    data-testid="card-title"
    transform="translate(25, 35)" >
    <g transform="translate(0, 0)">
      <text
        x="0"
        y="0"
        class="header"
        data-testid="header"
      >Shokhrukh Shomakhmudov's GitHub rank in Uzbekistan</text>
    </g>
  </g>
          
    <g data-testid="main-card-body" transform="translate(0, 55)">  
      <g data-testid="rank-circle" transform="translate(200, 7)" class="stagger" style="animation-delay: 1200ms"> 
          <svg viewBox="0 0 1124 1124" >
            <g id="graphic" transform="translate(0 -1.5)">
              <path id="Path_20080" data-name="Path 20080" d="M144,318.5H64a8,8,0,0,0-8,8v176a8,8,0,0,0,8,8h80a8,8,0,0,0,8-8v-176A8,8,0,0,0,144,318.5Z" fill="#accdfb"/>
              <g id="Group_4272" data-name="Group 4272">
                <path id="Path_20081" data-name="Path 20081" d="M80,502.5v-176a8,8,0,0,1,8-8H64a8,8,0,0,0-8,8v176a8,8,0,0,0,8,8H88A8,8,0,0,1,80,502.5Z" fill="#85b9ff"/>
                <path id="Path_20082" data-name="Path 20082" d="M296,278.5H216a8,8,0,0,0-8,8v216a8,8,0,0,0,8,8h80a8,8,0,0,0,8-8v-216A8,8,0,0,0,296,278.5Z" fill="#85b9ff"/>
              </g>
              <g id="Group_4273" data-name="Group 4273">
                <path id="Path_20083" data-name="Path 20083" d="M232,502.5v-216a8,8,0,0,1,8-8H216a8,8,0,0,0-8,8v216a8,8,0,0,0,8,8h24A8,8,0,0,1,232,502.5Z" fill="#5194f0"/>
                <path id="Path_20084" data-name="Path 20084" d="M448,190.5H368a8,8,0,0,0-8,8v304a8,8,0,0,0,8,8h80a8,8,0,0,0,8-8v-304A8,8,0,0,0,448,190.5Z" fill="#5194f0"/>
              </g>
              <path id="Path_20085" data-name="Path 20085" d="M384,502.5v-304a8,8,0,0,1,8-8H368a8,8,0,0,0-8,8v304a8,8,0,0,0,8,8h24A8,8,0,0,1,384,502.5Z" fill="#3382ee"/>
              <path id="Path_20086" data-name="Path 20086" d="M504,510.5H8a8,8,0,0,1,0-16H504a8,8,0,0,1,0,16Z" fill="#aab4bd"/>
              <path id="Path_20087" data-name="Path 20087" d="M482.589,5.506a16,16,0,0,0-12.573-3.882l-64,8a16,16,0,0,0,3.968,31.753l24.068-3.008c-81.4,101.288-181.492,152.916-253.309,178.662C96.9,247.087,32.145,249.488,31.5,249.508a16,16,0,0,0,.491,31.992c.164,0,.328,0,.493-.007,2.8-.085,69.531-2.438,157.886-33.921a621.256,621.256,0,0,0,144.341-73.527A585.441,585.441,0,0,0,456,62.1V81.5a16,16,0,0,0,32,0v-64A16,16,0,0,0,482.589,5.506Z" fill="#55697a"/>
            </g>
          </svg>
        </g>
      <svg x="0" y="0"><g transform="translate(0, 0)">
    <g class="stagger" style="animation-delay: 450ms" transform="translate(25, 0)">
        <text class="stat bold" x="0" y="12.5" style="fill:#4c71f2;">1</text>
        <text class="stat bold" x="30" y="12.5">Sukhrob Khakimov</text>
        <text class="stat" x="250" y="12.5">4094</text>
    </g>
</g><g transform="translate(0, 25)">
    <g class="stagger" style="animation-delay: 600ms" transform="translate(25, 0)">
        <text class="stat bold" x="0" y="12.5" style="fill:#4c71f2;">2</text>
        <text class="stat bold" x="30" y="12.5">Shokhrukh Shomakhmudov</text>
        <text class="stat" x="250" y="12.5">3661</text>
    </g>
</g><g transform="translate(0, 50)">
    <g class="stagger" style="animation-delay: 750ms" transform="translate(25, 0)">
        <text class="stat bold" x="0" y="12.5" style="fill:#4c71f2;">3</text>
        <text class="stat bold" x="30" y="12.5">Mirakhmad Mirzajonov</text>
        <text class="stat" x="250" y="12.5">2796</text>
    </g>
</g><g transform="translate(0, 75)">
    <g class="stagger" style="animation-delay: 900ms" transform="translate(25, 0)">
        <text class="stat bold" x="0" y="12.5" style="fill:#4c71f2;">4</text>
        <text class="stat bold" x="30" y="12.5">InadullaevMakhmudjon</text>
        <text class="stat" x="250" y="12.5">2242</text>
    </g>
</g><g transform="translate(0, 100)">
    <g class="stagger" style="animation-delay: 1050ms" transform="translate(25, 0)">
        <text class="stat bold" x="0" y="12.5" style="fill:#4c71f2;">5</text>
        <text class="stat bold" x="30" y="12.5">Farrukh Kholmukhamedov</text>
        <text class="stat" x="250" y="12.5">2050</text>
    </g>
</g></svg> 
    </g>
</svg>
    