<svg width="495" height="195" viewBox="0 0 495 195" fill="none" xmlns="http://www.w3.org/2000/svg">

  <style>
    .header {
      font: 600 18px "Segoe UI", Ubuntu, Sans-Serif;
      fill: #2f80ed;
      animation: fadeInAnimation 0.8s ease-in-out forwards;
    }

    .stat {
      font: 600 14px "Segoe UI", Ubuntu, "Helvetica Neue", Sans-Serif;
      fill: #333;
    }
    .stagger {
      opacity: 0;
      animation: fadeInAnimation 0.3s ease-in-out forwards;
    }
    .rank-text {
      font: 800 24px "Segoe UI", Ubuntu, Sans-Serif;
      fill: #333;
      animation: scaleInAnimation 0.3s ease-in-out forwards;
    }
    
    .light-theme{

    }

    .dark-them{

    }

    .bold {
      font-weight: 700;
    }

    .rank {
      font: 600 14px "Segoe UI", Ubuntu, "Helvetica Neue", Sans-Serif;
      font-weight: 700;
      fill: #4c71f2;
    }

    /* Animations */
    @keyframes scaleInAnimation {
      from {
        transform: translate(-5px, 5px) scale(0);
      }
      to {
        transform: translate(-5px, 5px) scale(1);
      }
    }
    @keyframes fadeInAnimation {
      from {
        opacity: 0;
      }
      to {
        opacity: 1;
      }
    }
  </style>

  <rect
    data-testid="card-bg"
    x="0.5"
    y="0.5"
    rx="4.5"
    height="99%"
    stroke="$stroke"
    width="494"
    fill="$3"
    stroke-opacity="1"
  />

  <g
    data-testid="card-title"
    transform="translate(25, 35)" >
    <g transform="translate(0, 0)">
      <text
        x="0"
        y="0"
        class="header"
        style="fill: $hfill"
        data-testid="header"
      >$1</text>
    </g>
  </g>
          
    <g data-testid="main-card-body" transform="translate(0, 55)">  
      <g data-testid="rank-circle" transform="translate(200, 7)" class="stagger" style="animation-delay: 1200ms"> 
          <svg viewBox="0 0 1124 1124" style="$hideLight">
            <g id="graphic" transform="translate(0 -1.5)">
              <path id="Path_20080" data-name="Path 20080" d="M144,318.5H64a8,8,0,0,0-8,8v176a8,8,0,0,0,8,8h80a8,8,0,0,0,8-8v-176A8,8,0,0,0,144,318.5Z" fill="#accdfb"/>
              <g id="Group_4272" data-name="Group 4272">
                <path id="Path_20081" data-name="Path 20081" d="M80,502.5v-176a8,8,0,0,1,8-8H64a8,8,0,0,0-8,8v176a8,8,0,0,0,8,8H88A8,8,0,0,1,80,502.5Z" fill="#85b9ff"/>
                <path id="Path_20082" data-name="Path 20082" d="M296,278.5H216a8,8,0,0,0-8,8v216a8,8,0,0,0,8,8h80a8,8,0,0,0,8-8v-216A8,8,0,0,0,296,278.5Z" fill="#85b9ff"/>
              </g>
              <g id="Group_4273" data-name="Group 4273">
                <path id="Path_20083" data-name="Path 20083" d="M232,502.5v-216a8,8,0,0,1,8-8H216a8,8,0,0,0-8,8v216a8,8,0,0,0,8,8h24A8,8,0,0,1,232,502.5Z" fill="#5194f0"/>
                <path id="Path_20084" data-name="Path 20084" d="M448,190.5H368a8,8,0,0,0-8,8v304a8,8,0,0,0,8,8h80a8,8,0,0,0,8-8v-304A8,8,0,0,0,448,190.5Z" fill="#5194f0"/>
              </g>
              <path id="Path_20085" data-name="Path 20085" d="M384,502.5v-304a8,8,0,0,1,8-8H368a8,8,0,0,0-8,8v304a8,8,0,0,0,8,8h24A8,8,0,0,1,384,502.5Z" fill="#3382ee"/>
              <path id="Path_20086" data-name="Path 20086" d="M504,510.5H8a8,8,0,0,1,0-16H504a8,8,0,0,1,0,16Z" fill="#aab4bd"/>
              <path id="Path_20087" data-name="Path 20087" d="M482.589,5.506a16,16,0,0,0-12.573-3.882l-64,8a16,16,0,0,0,3.968,31.753l24.068-3.008c-81.4,101.288-181.492,152.916-253.309,178.662C96.9,247.087,32.145,249.488,31.5,249.508a16,16,0,0,0,.491,31.992c.164,0,.328,0,.493-.007,2.8-.085,69.531-2.438,157.886-33.921a621.256,621.256,0,0,0,144.341-73.527A585.441,585.441,0,0,0,456,62.1V81.5a16,16,0,0,0,32,0v-64A16,16,0,0,0,482.589,5.506Z" fill="#55697a"/>
            </g>
          </svg>
          <svg  viewBox="0 10 1124 1124" style="$hideDark" xmlns="http://www.w3.org/2000/svg">
            <path d="m361 391-30 30v61l30 30h151v-121zm0 0" fill="#737ee6" />
            <path d="m0 361v151h151l30-30v-91l-30-30zm0 0" fill="#f27281" />
            <path d="m151 301h210v211h-210zm0 0" fill="#fdbf00" />
            <path d="m256 301h105v211h-105zm0 0" fill="#ff9100" />
            <path d="m316 151h-7.851562v-30h7.851562c24.8125 0 45-21.1875 45-46v-15h-45v-30h75v45c0 41.351562-33.648438 76-75 76zm0 0" fill="#ff9100" />
            <path d="m203.851562 151h-7.851562c-41.351562 0-75-34.648438-75-76v-45h75v30h-45v15c0 24.8125 20.1875 46 45 46h7.851562zm0 0" fill="#fdbf00" />
            <path d="m181 0v106c0 11.699219 2.699219 22.800781 7.800781 33 6 12.300781 15.601563 24 25.199219 35.097656 13.199219 15.902344 27 32.101563 27 45.902344v36h30v-36c0-13.800781 13.800781-30 27-45.902344 9.597656-11.097656 19.199219-22.796875 25.199219-34.796875 5.101562-10.5 7.800781-21.601562 7.800781-33.300781v-106zm0 0" fill="#ffda2d" />
            <path d="m271 256h-15v-256h75v106c0 11.699219-2.699219 22.800781-7.800781 33.300781-6 12-15.601563 23.699219-25.199219 34.796875-13.199219 15.902344-27 32.101563-27 45.902344zm0 0" fill="#fdbf00" />
            <path d="m474.304688 305.335938-56.308594-29.589844-56.277344 29.589844 10.75-62.679688-45.527344-44.386719 62.917969-9.140625 28.136719-57.027344 28.140625 57.027344 63.945312 9.140625-46.558593 44.386719zm0 0" fill="#ff9100" />
            <path d="m150.28125 305.335938-56.277344-29.589844-56.308594 29.589844 10.78125-62.679688-46.558593-44.386719 63.945312-9.140625 28.140625-57.023437 28.140625 57.023437 62.914063 9.140625-45.527344 44.386719zm0 0" fill="#fdbf00" />
            <path d="m301 421v30h-90v-30h30v-30h-30v-30h60v60zm0 0" fill="#596c76" />
            <path d="m211 241h90v30h-90zm0 0" fill="#fdbf00" />
            <path d="m256 241h45v30h-45zm0 0" fill="#ff9100" />
            <path d="m271 421h30v30h-45v-90h15zm0 0" fill="#465a61" />
        </svg>
        </g>
      <svg x="0" y="0">$2</svg> 
    </g>
</svg>
